<?xml version="1.0" standalone="no"?>
<!DOCTYPE svg PUBLIC "-//W3C//DTD SVG 20010904//EN"
 "http://www.w3.org/TR/2001/REC-SVG-20010904/DTD/svg10.dtd">
<svg version="1.0" xmlns="http://www.w3.org/2000/svg"
 width="225.000000pt" height="225.000000pt" viewBox="0 0 225.000000 225.000000"
 preserveAspectRatio="xMidYMid meet">

<g transform="translate(0.000000,225.000000) scale(0.100000,-0.100000)"
fill="#000000" stroke="none">
<path d="M1125 1870 c-183 -37 -410 -164 -548 -309 -111 -116 -164 -224 -182
-369 -6 -46 -11 -56 -43 -77 -62 -42 -137 -121 -161 -171 -27 -53 -38 -123
-24 -149 8 -13 10 -4 10 36 0 164 199 326 530 433 43 14 97 30 120 36 81 20
91 71 18 84 -42 8 -157 -21 -136 -33 21 -13 -16 -22 -45 -11 l-26 10 23 19 23
19 -32 7 c-36 7 -56 36 -47 65 6 18 8 18 32 -10 25 -30 55 -40 52 -17 -4 35 3
36 26 3 14 -20 25 -41 25 -47 0 -6 7 -6 19 1 11 5 42 10 69 10 39 0 55 -5 77
-26 l27 -25 -23 -25 c-13 -14 -48 -31 -79 -40 -279 -76 -411 -140 -528 -254
-65 -63 -95 -121 -94 -180 1 -104 113 -132 265 -66 78 34 94 33 56 -5 -73 -73
-259 -90 -314 -29 -10 11 -23 20 -28 20 -16 0 25 -40 57 -57 64 -33 203 -10
314 52 42 23 46 24 63 9 17 -15 18 -14 24 23 4 21 10 49 15 63 7 24 8 23 15
-13 12 -63 -2 -124 -35 -149 -16 -11 -31 -27 -34 -34 -2 -6 13 -47 34 -91 22
-43 40 -83 40 -89 0 -6 18 -25 39 -42 22 -18 41 -42 43 -54 4 -22 5 -22 18 5
15 31 44 36 59 10 8 -16 10 -14 16 10 7 26 15 31 43 28 7 -1 12 9 12 25 0 19
4 25 15 20 19 -7 19 4 -1 32 -11 16 -25 23 -43 22 -80 -6 -101 10 -101 77 0
41 5 51 43 90 23 23 47 43 52 43 6 0 26 -13 45 -28 30 -26 34 -36 40 -95 6
-57 12 -72 42 -105 20 -22 37 -44 39 -51 3 -8 42 -11 136 -9 l132 3 -19 43
c-16 36 -23 42 -49 42 -16 0 -32 4 -35 9 -3 5 -21 12 -40 15 -35 7 -39 12 -51
74 -5 25 -3 32 9 32 9 0 16 7 16 15 0 8 6 14 13 12 7 -1 13 10 15 26 3 23 7
27 20 21 68 -30 155 -54 199 -54 28 0 53 -4 55 -9 2 -6 22 -6 52 0 44 8 52 7
81 -15 23 -18 35 -22 43 -14 6 6 28 21 49 32 31 18 39 28 43 59 l5 38 40 -30
c47 -34 110 -133 101 -157 -5 -13 -16 -15 -60 -9 -51 6 -56 4 -71 -19 -12 -17
-14 -35 -9 -61 l7 -37 23 25 c27 29 85 42 145 32 53 -9 83 -38 76 -73 l-5 -27
29 33 c34 38 39 39 39 10 1 -23 1 -23 15 2 8 14 14 33 15 44 0 12 5 16 15 12
12 -4 15 4 15 40 0 54 -11 60 -80 47 -63 -13 -76 -4 -114 74 l-28 60 26 27
c14 16 28 37 31 47 4 11 11 19 17 19 16 0 0 120 -22 156 -16 29 -18 60 -4 104
5 13 6 13 14 0 18 -29 10 89 -9 140 -11 27 -15 47 -10 44 14 -8 11 22 -6 62
-14 33 -13 45 5 134 24 116 27 275 6 324 -50 119 -219 68 -338 -103 -13 -18
-23 -22 -45 -18 -35 7 -93 -17 -93 -37 0 -11 -9 -16 -28 -16 -50 0 -65 -39
-41 -108 9 -27 14 -30 29 -22 10 6 26 10 35 10 16 0 16 -2 1 -24 -15 -24 -15
-25 20 -36 20 -7 59 -10 86 -8 35 4 46 2 39 -5 -6 -6 -29 -11 -51 -11 -21 0
-37 -3 -34 -8 9 -14 -8 -9 -53 18 -24 14 -41 29 -39 33 3 5 -7 6 -22 3 -26 -5
-26 -5 -4 -15 12 -6 22 -14 22 -19 0 -13 -52 -88 -61 -88 -17 0 -31 76 -27
144 4 54 14 92 42 156 58 131 59 135 53 161 -10 40 -64 59 -160 58 -45 -1
-100 -5 -122 -9z m455 -199 c0 -21 140 -28 187 -10 14 5 28 7 30 5 10 -9 -19
-76 -38 -90 -20 -13 -19 -14 10 -36 34 -23 98 -110 82 -110 -5 0 -13 5 -16 10
-3 6 -10 10 -16 10 -5 0 7 -21 26 -46 35 -46 40 -69 10 -44 -21 18 -19 6 8
-38 45 -72 79 -188 45 -154 -21 21 -26 13 -17 -25 11 -49 11 -53 -1 -53 -5 0
-10 6 -10 14 0 8 -11 28 -24 43 l-25 28 15 -45 c13 -37 14 -54 4 -97 -12 -54
-25 -67 -33 -35 -3 11 -5 7 -6 -10 -1 -27 -37 -62 -53 -52 -4 3 -8 15 -8 27 0
18 -2 19 -10 7 -9 -13 -11 -13 -20 0 -5 8 -10 30 -10 49 0 28 -2 31 -14 22
-19 -16 -34 11 -43 74 -6 50 -22 43 -23 -10 l0 -30 -20 25 c-11 14 -22 44 -26
67 -6 41 -7 42 -27 28 -25 -17 -70 -19 -98 -5 -29 16 -23 35 13 37 20 2 42 13
58 29 18 19 20 25 8 21 -22 -8 -22 -9 1 36 19 38 38 35 26 -4 -6 -18 -5 -20
14 -10 12 7 28 23 37 37 20 29 34 21 37 -24 2 -29 3 -30 20 -14 14 13 18 28
15 64 -3 43 -2 46 14 31 16 -14 17 -13 8 17 -5 18 -17 41 -26 51 -14 15 -14
19 -3 19 8 1 -5 11 -29 23 -24 13 -40 26 -36 30 4 4 -7 13 -24 19 -18 7 -32
19 -32 26 0 11 14 12 68 8 l67 -6 -47 15 c-26 8 -50 20 -53 25 -8 13 -56 13
-90 0 -36 -14 -50 -3 -28 22 18 20 18 21 -7 14 -24 -7 -24 -6 -6 8 21 17 116
23 116 7z m-119 -69 c24 -16 63 -45 87 -65 l42 -36 -32 -3 c-21 -2 -43 4 -60
16 -26 18 -67 25 -97 15 -20 -6 -38 66 -21 86 17 21 30 19 81 -13z m88 -1
c-13 -10 -29 -16 -36 -14 -20 8 -15 21 10 26 44 9 49 7 26 -12z m62 -205 c-8
-9 -23 -11 -51 -6 -55 10 -57 15 -10 29 22 6 46 21 53 32 11 18 12 18 15 -11
2 -17 -1 -37 -7 -44z m-491 -221 c0 -2 -14 -12 -31 -20 -49 -26 -27 -28 46 -6
79 25 187 37 241 27 28 -6 34 -10 23 -17 -10 -7 -4 -9 21 -8 69 2 97 -1 116
-16 16 -13 16 -14 2 -9 -26 9 -22 -3 10 -31 l27 -24 -40 -1 c-39 -2 -40 -2
-13 -13 39 -18 68 -48 68 -71 0 -20 -1 -20 -16 2 -16 23 -17 23 -36 5 -18 -16
-48 -71 -48 -89 0 -3 7 -4 15 -1 30 12 25 -15 -8 -48 -31 -31 -41 -35 -87 -35
-78 0 -150 51 -150 106 0 18 -4 21 -22 16 -19 -5 -21 -2 -15 29 3 19 8 42 12
51 5 13 2 15 -17 10 l-23 -6 19 30 c10 16 30 42 45 58 l26 28 -24 -7 c-38 -12
-134 -71 -160 -99 l-24 -26 35 0 c31 0 35 -3 31 -20 -3 -11 -2 -36 2 -56 6
-34 8 -35 22 -21 14 14 18 13 37 -15 26 -38 51 -50 42 -20 -5 14 6 8 36 -21
39 -38 41 -43 23 -48 -18 -6 -17 -8 10 -19 17 -7 44 -13 62 -14 33 -1 35 -16
2 -16 -11 0 -17 -4 -14 -10 3 -5 1 -10 -5 -10 -29 0 -184 101 -169 110 6 4 -6
11 -28 15 -60 11 -146 62 -181 107 l-32 42 0 -66 c0 -73 -4 -82 -32 -67 -18
10 -18 8 -8 -11 6 -11 8 -30 4 -42 l-6 -21 -18 23 -17 23 -7 -38 c-9 -47 -39
-94 -82 -125 -19 -14 -31 -31 -29 -38 3 -8 5 -35 5 -62 0 -45 1 -48 32 -54 17
-3 39 -13 49 -22 9 -8 22 -14 29 -12 7 2 15 -3 18 -11 3 -9 0 -11 -8 -6 -7 4
-15 2 -19 -4 -5 -7 -12 -2 -21 14 -9 17 -21 25 -39 24 l-26 0 23 -10 c13 -5
21 -13 18 -18 -3 -5 1 -11 9 -15 8 -3 15 -10 15 -15 0 -18 -32 -4 -56 25 -19
22 -22 24 -14 6 6 -12 7 -22 3 -22 -4 0 -2 -5 5 -12 14 -14 16 -38 3 -38 -5 0
-16 7 -25 15 -8 8 -27 20 -43 26 l-28 12 25 7 c24 7 24 8 5 15 -30 12 -35 24
-36 85 -1 54 -1 54 -14 26 l-13 -30 -16 32 c-22 43 -20 55 14 80 17 13 30 18
30 12 0 -6 5 -8 11 -4 7 4 9 24 6 51 -4 43 -4 43 14 27 23 -20 34 -13 21 13
-15 29 -24 92 -17 124 l7 29 17 -22 c18 -21 18 -21 29 24 26 104 135 192 275
222 76 17 77 17 77 11z m-725 -122 c3 -16 11 -46 18 -68 l12 -40 3 38 c3 40
22 52 22 15 0 -13 12 -48 27 -78 l27 -55 6 63 c8 69 20 94 20 41 1 -19 7 -52
15 -74 8 -22 15 -43 15 -47 0 -4 -34 -24 -76 -44 -54 -26 -95 -38 -140 -42
-60 -4 -64 -3 -93 26 -37 36 -40 76 -12 138 19 41 122 154 141 154 5 0 12 -12
15 -27z m1521 -70 c-3 -8 1 -28 10 -46 12 -21 13 -32 5 -35 -6 -2 -11 -14 -11
-26 0 -29 -10 -39 -27 -25 -11 9 -12 5 -6 -21 4 -22 3 -31 -4 -27 -6 4 -13 -2
-16 -13 -3 -11 -13 -20 -22 -20 -9 0 -13 5 -10 10 3 6 1 10 -6 10 -6 0 -1 9
12 21 16 14 20 22 12 25 -9 4 -7 16 7 44 11 22 21 59 21 82 1 24 4 47 6 51 8
13 34 -15 29 -30z m-289 -54 c81 -38 84 -42 78 -67 -16 -68 -26 -98 -38 -112
-11 -14 -97 -54 -103 -47 -5 6 -34 67 -34 72 0 13 18 3 22 -13 5 -16 12 -18
49 -13 41 6 44 8 41 33 -2 17 3 30 15 37 17 10 17 10 -2 11 -11 0 -30 -3 -43
-6 -19 -5 -22 -12 -18 -30 5 -20 2 -24 -15 -24 -17 0 -20 5 -17 25 3 14 1 22
-4 19 -6 -4 -8 2 -6 12 2 13 16 21 47 26 50 8 79 28 43 28 -12 0 -22 4 -22 10
0 5 -7 7 -15 4 -8 -4 -15 -1 -15 5 0 6 -7 8 -15 5 -8 -4 -15 -1 -15 5 0 6 -7
8 -15 5 -8 -4 -15 -1 -15 6 0 6 -5 8 -10 5 -6 -4 -5 5 2 19 6 14 13 26 15 26
2 0 43 -18 90 -41z m262 -254 c31 -48 45 -77 39 -83 -17 -17 1 -32 38 -32 42
0 51 -18 30 -57 l-15 -28 -1 33 c0 31 -2 32 -39 32 -22 0 -44 6 -51 15 -10 12
-16 13 -26 4 -8 -7 -28 -9 -50 -4 -30 5 -41 2 -60 -16 l-24 -22 0 26 c0 34 14
41 80 42 53 0 54 1 61 33 3 17 4 32 0 32 -8 0 -46 63 -42 69 1 2 -5 9 -14 14
-14 7 -15 11 -4 18 19 11 23 6 78 -76z m-203 51 c-10 -6 -33 -21 -51 -33 -25
-16 -35 -18 -38 -9 -4 9 9 18 33 25 21 6 43 18 50 26 7 9 16 13 19 9 3 -3 -2
-11 -13 -18z m381 -118 c13 -22 13 -42 0 -29 -6 6 -20 11 -31 11 -19 -1 -19
-1 -3 -11 10 -6 17 -21 16 -37 l-1 -27 -11 28 c-10 24 -30 33 -61 28 -15 -3
-48 11 -41 17 5 6 77 24 117 31 4 0 10 -5 15 -11z"/>
<path d="M1748 1612 c-38 -23 -45 -45 -8 -24 17 9 32 23 35 30 2 6 3 12 2 11
-1 0 -14 -8 -29 -17z"/>
<path d="M1400 1600 c0 -5 9 -10 21 -10 11 0 17 5 14 10 -3 6 -13 10 -21 10
-8 0 -14 -4 -14 -10z"/>
</g>
</svg>
